<?xml version="1.0" encoding="utf-8"?>
<!-- Generator: Adobe Illustrator 24.0.3, SVG Export Plug-In . SVG Version: 6.00 Build 0)  -->
<svg version="1.1" id="Layer_1" xmlns="http://www.w3.org/2000/svg" xmlns:xlink="http://www.w3.org/1999/xlink" x="0px" y="0px"
	 viewBox="0 0 841.89 1190.55" style="enable-background:new 0 0 841.89 1190.55;" xml:space="preserve">
<style type="text/css">
	.st0{fill:#B6D994;}
	.st1{display:none;fill:#FFFAC4;}
</style>
<path class="st0" d="M373.19,55.61c-46.37,15.42-83.9,55.08-96.75,102.22c-46.09-13.77-98.73-0.87-134.54,31.25
	s-54.28,81.99-49.97,129.9c1.99,22.14,8.82,44.34,22.76,61.65s35.64,29.11,57.84,27.88C90.25,448.79,25.49,536.93,38.14,627.67
	c1.39,9.97,3.86,20.22,10.3,27.95c14.8,17.78,42.41,14.85,65.09,10.32c-33.82,19.03-46.41,65.14-33.68,101.79
	c12.74,36.65,46.1,63.44,82.75,76.21c23.68,8.25,52.34,10.57,71.72-5.35c-0.41,43.38,35.88,82.68,78.58,90.33
	c42.7,7.65,87.9-13.85,113.19-49.1c44.36,50.79,118.96,77.91,182.25,54.62c12.36-4.55,24.33-11.05,33-20.97
	c22.26-25.47,16.75-64.07,9.92-97.21c37.45,17.4,88.5,16.47,113.13-16.67c13.37-18,16.21-41.49,18.17-63.82
	c3.06-34.85,5.08-69.86,3.72-104.82c-1.12-28.77-4.68-57.97-16.48-84.22c-11.8-26.26-32.85-49.45-60.21-58.39
	c27.93-65.01,35.14-141.45,6.73-206.25s-96.87-113.67-167.33-107.16c16.04-27.17,22.89-59.65,19.19-90.99
	c-2.63-22.31-13.64-46.97-35.43-52.42c-33.4-8.35-40.66,33.61-67.05,32.76c-13.61-0.44-28.94-12.72-43.84-14.24
	C405.55,48.38,388.73,50.44,373.19,55.61z"/>
<path class="st1" d="M361.48,870.65c12.46-57.6,38.64-115.11,41.05-172.76c6.89-164.69-179.43-331.19-19.63-492.78
	c37.12,133.47,74.27,267.02,150.11,399.84c21.71,38.02,46.63,76.1,46.57,114.37c-0.1,64.13-70.29,127.54-78.44,191.64
	c-9.86,77.5,71.07,154.83,47.29,232.21c-46.64,6.23-108.92,6.82-155.84,1.07c56.62-35.61-27.62-94.53-34.16-132.37
	C350.3,964.8,351.31,917.69,361.48,870.65z"/>
</svg>
