<?xml version="1.0" encoding="utf-8"?>
<!-- Generator: Adobe Illustrator 24.0.3, SVG Export Plug-In . SVG Version: 6.00 Build 0)  -->
<svg version="1.1" id="Layer_1" xmlns="http://www.w3.org/2000/svg" xmlns:xlink="http://www.w3.org/1999/xlink" x="0px" y="0px"
	 viewBox="0 0 236.47 815.13" style="enable-background:new 0 0 236.47 815.13;" xml:space="preserve">
<style type="text/css">
	.st0{display:none;fill:#2BB673;}
	.st1{fill:#808285;}
</style>
<path class="st0" d="M425.2-118.05c-67.13-65.21-161.98-94.65-255.11-103.84c-59.19-5.84-121.39-3.83-174.5,22.94
	c-52.54,26.48-90.74,74.32-124.28,122.66c-43.83,63.18-83.5,131.93-95.01,207.96c-6.22,41.07-3.99,82.96,0.43,124.26
	c9.37,87.62,29.51,176.47,78.57,249.67c12.27,18.31,26.43,35.64,44.02,48.92c38.07,28.74,87.87,35.68,135.35,40.23
	c24.56,2.35,49.73,4.27,73.56-2.11c33.86-9.07,61.1-33.76,85.49-58.95c150.82-155.8,246.34-364.09,266-580.04
	c1.33-14.57,2.26-29.64-2.48-43.48c-9.74-28.39-39.81-43.59-67.17-55.93"/>
<path class="st1" d="M32.67,779.53c1.15-1.12,2.31-2.23,3.46-3.35c20.48-19.82,38.58-42.27,51.15-67.47
	c10.46-20.97,21.01-42.7,22.17-65.93c1.08-21.66-6.1-42.82-13.19-63.4c-7.86-22.83-15.73-45.65-23.59-68.48
	c-10.34-30.03-20.8-60.71-20.71-92.34c0.07-26.19,7.4-51.86,16.21-76.64c27.08-76.15,68.9-148.29,81.18-227.91
	c3.19-20.68,4.35-41.72,9.85-61.94c5.5-20.22,16-40.11,33.81-52.07c-27.45,68.13-20.56,145.04-43.68,214.65
	c-14.64,44.06-41.09,84.48-49.78,129.98c-8.71,45.61,1.2,92.64,15.45,136.94s32.9,87.45,42.34,132.92
	c6.45,31.07,8.63,63.31,20.95,92.69c12.8,30.54,35.71,55.97,58.21,80.78c-42.24,21.54-91.67,24.71-139.43,26.69
	C62.89,816.07,24.68,815.7,0,792.94C14.77,788.66,21.79,790.06,32.67,779.53z"/>
</svg>
