<?xml version="1.0" encoding="utf-8"?>
<!-- Generator: Adobe Illustrator 24.0.3, SVG Export Plug-In . SVG Version: 6.00 Build 0)  -->
<svg version="1.1" id="Layer_1" xmlns="http://www.w3.org/2000/svg" xmlns:xlink="http://www.w3.org/1999/xlink" x="0px" y="0px"
	 viewBox="0 0 841.89 1190.55" style="enable-background:new 0 0 841.89 1190.55;" xml:space="preserve">
<style type="text/css">
	.st0{fill:#4D4D4D;}
	.st1{display:none;fill:#4D4D4D;}
</style>
<path class="st0" d="M128.66,198.71c26,26.07,59.33,46.51,95.6,51.29v-38.45L128.66,198.71z"/>
<path class="st1" d="M262.89,469.35c-20.77,1.3-41.51,3.12-62.19,5.45c-17.59,1.99-44.65,0.9-60.69,8.47
	c-13.99,6.61-11.93,13.4-9.88,27.66c2.9,20.23,2.28,40.07,4.15,60.26c65.62-0.68,119.04-52.66,182.25-67.87v-36.16
	C298.63,467.52,280.75,468.24,262.89,469.35z"/>
<path class="st1" d="M392.46,212.25c-30.91,5.1-62.14,12.4-93.22,8.5l-18.44-2.48v38.45c3.28,0.43,6.58,0.75,9.91,0.92
	c32.34,1.64,63.85-9.44,95.97-13.57c6.47-0.83,12.97-1.37,19.49-1.62v-32.52C401.48,210.73,396.9,211.52,392.46,212.25z"/>
<path class="st1" d="M628.09,273.69c0.08-25.5,9.93-64.77-22.93-70.29c-30.93-5.2-68.6,1.02-101,6.53v32.52
	C547.31,240.77,590.94,251.66,628.09,273.69z"/>
<path class="st1" d="M433.73,468c-23.71-0.87-47.44-1.05-71.16-0.58v36.16c14.14-3.4,28.78-4.98,44.15-3.71
	c25.41,2.09,49.48,11.75,73.48,20.37c7.95,2.86,15.94,5.61,23.97,8.23v-53.65C468.88,470.98,440.38,468.25,433.73,468z"/>
<path class="st1" d="M697.08,554.24c24.47-5.12,47.9-22.02,54.08-46.24c1.4-5.47-100.01-18.14-172.66-26.07v53.65
	c14.68,4.81,29.5,9.19,44.47,13C647.19,554.72,672.61,559.36,697.08,554.24z"/>
<path class="st1" d="M155.48,831.22c11.1,14.97,22.94,30.55,39.94,38.19c27.69,12.45,59.74,0.35,90.09,1.26
	c1.41,0.04,2.81,0.12,4.21,0.21v-51.62C244.9,820.62,200.05,825.92,155.48,831.22z"/>
<path class="st1" d="M471.77,821.63c-25.65-2.6-51.37-3.13-77.1-2.36v51.62c25.6,1.76,50.06,12.11,75.61,15.23
	c17.46,2.13,34.67,1.34,51.76-0.33v-57.39C505.3,825.91,488.57,823.33,471.77,821.63z"/>
<path class="st1" d="M725.01,887.15c1.41-9.69,7.23-40.53-0.15-49.25c-8.67-10.25-35.97-1.87-48.6-1.99
	c-25.23-0.22-50.18-3.78-75.11-7.5v57.39C642.61,881.74,683.34,872.49,725.01,887.15z"/>
</svg>
