<?xml version="1.0" encoding="utf-8"?>
<!-- Generator: Adobe Illustrator 24.0.3, SVG Export Plug-In . SVG Version: 6.00 Build 0)  -->
<svg version="1.1" id="Layer_1" xmlns="http://www.w3.org/2000/svg" xmlns:xlink="http://www.w3.org/1999/xlink" x="0px" y="0px"
	 viewBox="0 0 688.31 821.54" style="enable-background:new 0 0 688.31 821.54;" xml:space="preserve">
<style type="text/css">
	.st0{fill:#2BB673;}
</style>
<path class="st0" d="M652.73,106.53C585.61,41.32,490.76,11.88,397.63,2.69c-59.19-5.84-121.39-3.83-174.5,22.94
	c-52.54,26.48-90.74,74.32-124.28,122.66c-43.83,63.18-83.5,131.93-95.01,207.96c-6.22,41.07-3.99,82.96,0.43,124.26
	c9.37,87.62,29.51,176.47,78.57,249.67c12.27,18.31,26.43,35.64,44.02,48.92c38.07,28.74,87.87,35.68,135.35,40.23
	c24.56,2.35,49.73,4.27,73.56-2.11c33.86-9.07,61.1-33.76,85.49-58.95c150.82-155.8,246.34-364.09,266-580.04
	c1.33-14.57,2.26-29.64-2.48-43.48c-9.74-28.39-39.81-43.59-67.17-55.93"/>
</svg>
