<?xml version="1.0" encoding="utf-8"?>
<!-- Generator: Adobe Illustrator 22.1.0, SVG Export Plug-In . SVG Version: 6.00 Build 0)  -->
<svg version="1.1" xmlns="http://www.w3.org/2000/svg" xmlns:xlink="http://www.w3.org/1999/xlink" x="0px" y="0px"
	 viewBox="0 0 74.5 198.2" style="enable-background:new 0 0 74.5 198.2;" xml:space="preserve">
<style type="text/css">
	.st0{display:none;}
	.st1{display:inline;fill:#FFFFFF;stroke:#000000;stroke-miterlimit:10;}
	.st2{display:inline;fill:url(#SVGID_1_);}
	.st3{display:none;fill:#0C0508;}
	.st4{fill:#E2E2E2;}
</style>
<g id="Layer_6">
</g>
<g id="Layer_1">
</g>
<g id="Layer_5" class="st0">
	<rect x="-59.6" class="st1" width="241.8" height="77"/>
</g>
<g id="Layer_4">
	<g id="Layer_11">
	</g>
	<g id="Layer_10">
	</g>
	<g id="Layer_9">
	</g>
	<g id="Layer_8">
	</g>
	<g id="Layer_7">
		<rect x="-59.1" y="-3.1" class="st3" width="241.4" height="7.9"/>
	</g>
	<g>
		<g>
			<path class="st4" d="M15.3,63.5c0.1-0.9,0.2-1.8,0.3-2.7c0.5-0.6,1-0.4,1.4,0.5c0.2,0,0.3,0.3,0.5,0.3c0.4,0,0.7-0.2,1-0.3
				c0.2-0.1,1.2-2.3,1-1.9c1.1-1.8,0.5-1.9,3.3-2.9c2-0.7,6.1-2.4,7.8-2.2c0.2,0,0.5,0,0.6-0.2c0.4-1.3,0.4-2.1,1.7-2.8
				c0.1-0.1,0.9,0.3,1.1,0.1c1.1-0.7,1.4-0.9,2-2.2c0.1-0.2-0.6-0.1-0.7,0.1c-0.8,1.7-2,1.2-3.1,1.1c-0.2,0-0.5,0-0.6,0.2
				c-0.6,1-0.5,2.6-1.6,3.2c-0.1,0.1-2,0.5-1.2,0.1c-2.2,1-4.6,1.2-6.8,2c-0.4,0.1-1-0.3-1.4,0.1c-1.7,1.5-1.8,5.9-5,3.3
				c-0.1-0.1-0.7,0-0.7,0.2c-0.1,1.3-0.3,2.7-0.4,4C14.6,63.8,15.3,63.7,15.3,63.5L15.3,63.5z"/>
		</g>
	</g>
	<g>
		<g>
			<path class="st4" d="M35.8,49.4c2.5,1.9,5.4,1.6,7.9,3.1c1.6,1,1.9,2,4.1,2c1.1,0,1.6-0.3,2.7-0.6c2.1-0.5,5.1-0.5,6.8-1.4
				c1.3-0.7,1.3-0.3,2-1.5c0.2-0.3-0.6-0.2-0.7,0c-1,1.7-9.1,2.1-10.3,2c-4.1-0.2-2.4-0.3-4.8-1.4c-2.5-1.2-4.6-0.7-7-2.5
				C36.2,49,35.6,49.3,35.8,49.4L35.8,49.4z"/>
		</g>
	</g>
	<g>
		<g>
			<path class="st4" d="M35.8,49.3c1.1-0.7,1.5-1.4,2.3-2.3c0.6-0.6,1.2-0.9,1.8-1.4c0.8-0.7,0.7-0.5,1.4-1.3
				c0.8-1.1,1.6-2.1,2.4-3.2c0.4-0.2,0.7-0.4,1.1-0.6c0,0,0.1-0.1,0.1-0.1c0.7-1.4,0.4-1.6,0-3.1c-1.4-4.5-0.4-8.5,1.1-12.9
				c0.1-0.2-0.6-0.2-0.7,0.1c-1.2,3.4-2.4,6.1-2.2,9.9c0.2,3,2.5,3.4,0.1,6.5c-0.2,0.3-1.3,1-1.7,1.5c-0.7,0.9-0.9,1.6-1.8,2.4
				c-0.2,0.2-0.5-0.3-0.9,0c-0.9,0.9-3.7,4.3-3.6,4.3C35,49.4,35.6,49.5,35.8,49.3L35.8,49.3z"/>
		</g>
	</g>
	<g>
		<g>
			<path class="st4" d="M43.9,31.9c-2.4-1.8-4.8-3.3-6.9-5.6c-0.2-0.2-0.6-0.1-0.7,0.1c-2.1,4.4-5-0.8-6.7-1.4
				c-0.9-0.3-1.9-0.4-2.8-0.1c-0.6,0.2-0.8,1.2-1,1.2c-2.9,0.8-5.9-2.4-8-4.3c-0.1-0.1-0.3-0.1-0.5,0c-2.3,0.4-4.2-0.2-5.8-1.8
				c-0.2-0.2-0.9,0.1-0.7,0.3c1.5,1.2,3,2,4.9,2.5c1.4,0.4,0.8-0.1,2.1,0.5c0.9,0.4,1.8,1.3,2.6,1.8c1.1,0.7,3.3,2.7,4.7,2.4
				c0.3-0.1,0.8-0.4,1.1-0.5c0,0,0.5-0.6,0.1-0.5c2.1-0.6,4.5-0.1,5.8,2.4c0.1,0.1,0.2,0.1,0.3,0.1c1.1-0.1,3.2-1.3,3.9-1.3
				c1.6,0.1,5.4,3.5,6.9,4.6C43.5,32.4,44.2,32.1,43.9,31.9L43.9,31.9z"/>
		</g>
	</g>
	<g>
		<g>
			<path class="st4" d="M43.1,33.4c-0.4,0.9-0.4,1.7-0.2,2.7c0.4,1.8,1.2,2.3-0.3,4.2c-1.2,1.6-2.6,3.1-3.8,4.8
				c-0.2,0.2,0.3,0.2,0.4,0.2c1.2-0.3,1.8-2,2.6-2.9c0.6-0.7,1.4-1.4,1.9-2.3c0.6-1,0.4-1.6,0.4-2.7c-0.2,0-0.5,0.1-0.7,0.1
				c0.5,1.5-0.4,2.7-1.2,3.9c-0.2,0.3,0.5,0.2,0.6,0.1c0.8-0.4,1.2-1.3,1.5-2.1c0.6-1.7-0.4-3-0.1-4.6c-0.2,0-0.5,0.1-0.7,0.1
				c0.1,1.4,0.2,2.7,0,4c-0.2,1.2-1,1.8-1.5,2.9c-0.2,0.3,0.5,0.2,0.6,0.1c0.1-0.2,0.3-0.3,0.4-0.5c-0.2,0-0.4-0.1-0.6-0.1
				c-0.5,0.7-0.9,1.3-1.3,2c0.2,0,0.5,0,0.7,0c0-0.2,0.1-0.4,0.1-0.6c0.1-0.3-0.6-0.1-0.7,0c-0.5,0.5-0.4,0.3-0.8,1
				c0.2,0,0.5,0,0.7,0c0.1-0.1,0.2-0.3,0.3-0.4c0.2-0.3-0.5-0.2-0.7,0c-0.2,0.3-0.5,0.7-0.7,1c0.2,0,0.5,0,0.7,0
				c0.1-0.2,0.1-0.5,0.2-0.7c0.1-0.3-0.6-0.1-0.7,0c-0.2,0.2-0.3,0.4-0.5,0.6c-0.2,0.3,0.5,0.2,0.6,0.1c0.6-0.5,1-1,1.5-1.6
				c0.3-0.4,0.5-0.8,0.9-1.2c0.7-0.7,1-0.5-0.4,0.8c0.2,0,0.4,0.1,0.6,0.1c0.6-0.8,1.2-1.5,1.7-2.4c-0.2,0-0.5,0-0.7,0
				c-0.3,1.3-1.5,2.3-2.3,3.2c-0.2,0.2,0.5,0.2,0.7,0c0.9-1,2-2,2.3-3.3c0.1-0.3-0.6-0.1-0.7,0c-0.5,0.9-1,1.6-1.7,2.4
				c-0.2,0.3,0.5,0.2,0.6,0.1c0.6-0.6,1.3-1.3,1.6-2.1c0,0,0-0.1,0-0.1c-1.5-1.3-4.1,3.4-4.7,4c0.2,0,0.4,0.1,0.6,0.1
				c0.2-0.2,0.3-0.4,0.5-0.6c-0.2,0-0.5,0-0.7,0c-0.1,0.2-0.1,0.5-0.2,0.7c-0.1,0.3,0.6,0.1,0.7,0c0.2-0.3,0.5-0.7,0.7-1
				c-0.2,0-0.5,0-0.7,0c-0.1,0.1-0.2,0.3-0.3,0.4c-0.2,0.3,0.5,0.2,0.7,0c0.2-0.3,0.5-0.6,0.7-0.9c-0.2,0-0.4,0-0.7,0
				c0,0.2-0.1,0.4-0.1,0.6c-0.1,0.3,0.6,0.1,0.7,0c0.4-0.7,0.8-1.4,1.3-2c0.2-0.3-0.5-0.2-0.6-0.1c-0.1,0.2-0.3,0.3-0.4,0.5
				c0.2,0,0.4,0.1,0.6,0.1c0.5-1,1.4-1.7,1.7-2.8c0.3-1.3,0-2.9-0.1-4.3c0-0.3-0.7-0.1-0.7,0.1c-0.3,2,1.5,5.1-1,6.4
				c0.2,0,0.4,0.1,0.6,0.1c0.9-1.2,1.8-2.6,1.3-4.1c-0.1-0.2-0.7-0.1-0.7,0.1c0,1.5-0.3,2.5-1.3,3.7c-0.5,0.6-1,1.1-1.5,1.7
				c-0.2,0.2-2,2.4-0.7,1.6c0.6-0.4,1.1-1.6,1.6-2.1c0.7-0.9,2.6-2.2,2.8-3.5c0.3-1.9-1.3-3.3-0.5-5.5C43.9,33,43.2,33.1,43.1,33.4
				L43.1,33.4z"/>
		</g>
	</g>
</g>
<g id="Layer_12">
</g>
<g id="Layer_3">
</g>
<g id="Layer_2">
</g>
</svg>
