<?xml version="1.0" encoding="utf-8"?>
<!-- Generator: Adobe Illustrator 22.1.0, SVG Export Plug-In . SVG Version: 6.00 Build 0)  -->
<svg version="1.1" xmlns="http://www.w3.org/2000/svg" xmlns:xlink="http://www.w3.org/1999/xlink" x="0px" y="0px"
	 viewBox="0 0 74.5 198.2" style="enable-background:new 0 0 74.5 198.2;" xml:space="preserve">
<style type="text/css">
	.st0{display:none;}
	.st1{display:inline;fill:#FFFFFF;stroke:#000000;stroke-miterlimit:10;}
	.st2{display:inline;fill:url(#SVGID_1_);}
	.st3{display:none;fill:#0C0508;}
	.st4{fill:#E2E2E2;}
</style>
<g id="Layer_6">
</g>
<g id="Layer_1">
</g>
<g id="Layer_5" class="st0">
	<rect x="-59.6" class="st1" width="241.8" height="77"/>
</g>
<g id="Layer_4">
	<g id="Layer_11">
	</g>
	<g id="Layer_10">
	</g>
	<g id="Layer_9">
	</g>
	<g id="Layer_8">
	</g>
	<g id="Layer_7">
		<rect x="-59.1" y="-3.1" class="st3" width="241.4" height="7.9"/>
	</g>
	<g>
		<g>
			<path class="st4" d="M17.7,102.5c3.9,2.4,7.9,5.2,12.1,6.7c0,0,1.5,0.1,1,0c1.1,0.2,1.8,0.9,2.9,1.3c3.1,1.3,7.2-0.9,10,1.5
				c0.2,0.2,0.9-0.1,0.6-0.4c-1.3-1.1-2.2-1.4-3.9-1.4c-0.9,0.1-1.8,0.2-2.7,0.3c-1.8-0.6-3.6-1.1-5.5-1.7c-1.1-0.3-0.3-0.5-1.1-0.6
				c-1.2-0.1-2.1,0.1-3.3-0.3c-3.2-1.2-6.6-4.1-9.5-5.9C18,101.9,17.4,102.3,17.7,102.5L17.7,102.5z"/>
		</g>
	</g>
	<g>
		<g>
			<path class="st4" d="M35.5,110.8c5.1,0.8,5.3,3,8.6,5.9c1.4,1.2,3.2,1.4,5,1.9c4.9,1.3,7.7,6,12.7,6.7c0.3,0,0.7-0.4,0.3-0.5
				c-3.8-0.5-5.6-3.6-8.7-5.4c-2-1.2-4.3-1.1-6.4-2c-2.9-1.2-3.7-4.2-6.1-5.8c-1.5-0.9-3.3-1.2-5-1.4
				C35.4,110.2,35,110.7,35.5,110.8L35.5,110.8z"/>
		</g>
	</g>
	<g>
		<g>
			<path class="st4" d="M27.9,108.4c3.4,0.3,1.4,3.6,1,5.1c-0.5,2.1,0.1,4.7-0.4,7c-0.9,4.3-1.4,4.8-5.7,5.9
				c-2.5,0.6-4.5,0.3-6.7,1.1c-0.3,0.1-0.8,1-0.8,1c-3.4,2.4-2.2,2.7-5.3,3.6c-0.4,0.1-0.3,0.5,0.1,0.4c1.9-0.5,3.3-1,4.9-1.9
				c0.3-0.2,0.3-0.9,0.6-1.1c2-1.2,3.7-0.6,5.6-0.7c2.9-0.1,4.8-1.2,6.4-3.8c1.3-2.2,1.8-4.8,2-7.3c0.1-1,0.1-1.9,0.1-2.9
				c0-2.2,0.7-1.9,1.6-3.5c1.3-2.3-1-3.1-3.1-3.3C27.9,107.9,27.4,108.3,27.9,108.4L27.9,108.4z"/>
		</g>
	</g>
	<g>
		<g>
			<path class="st4" d="M30.6,109.5c-3.6-2.3-8.4-6.1-12.7-6.9c-2.6-0.5-3.1,2.1-6.1,2c-0.2,0-0.8,0.3-0.5,0.3
				c2,0.1,2.6-0.7,4.3-1.3c4.2-1.5,10.8,3.8,14.3,6.1C30.1,109.8,30.7,109.5,30.6,109.5L30.6,109.5z"/>
		</g>
	</g>
</g>
<g id="Layer_12">
</g>
<g id="Layer_3">
</g>
<g id="Layer_2">
</g>
</svg>
