<?xml version="1.0" encoding="utf-8"?>
<!-- Generator: Adobe Illustrator 22.1.0, SVG Export Plug-In . SVG Version: 6.00 Build 0)  -->
<svg version="1.1" xmlns="http://www.w3.org/2000/svg" xmlns:xlink="http://www.w3.org/1999/xlink" x="0px" y="0px"
	 viewBox="0 0 74.5 198.2" style="enable-background:new 0 0 74.5 198.2;" xml:space="preserve">
<style type="text/css">
	.st0{display:none;}
	.st1{display:inline;fill:#FFFFFF;stroke:#000000;stroke-miterlimit:10;}
	.st2{display:inline;fill:url(#SVGID_1_);}
	.st3{display:none;fill:#0C0508;}
	.st4{fill:#E2E2E2;}
</style>
<g id="Layer_6">
</g>
<g id="Layer_1">
</g>
<g id="Layer_5" class="st0">
	<rect x="-59.6" class="st1" width="241.8" height="77"/>
</g>
<g id="Layer_4">
	<g id="Layer_11">
	</g>
	<g id="Layer_10">
	</g>
	<g id="Layer_9">
	</g>
	<g id="Layer_8">
	</g>
	<g id="Layer_7">
		<rect x="-59.1" y="-3.1" class="st3" width="241.4" height="7.9"/>
	</g>
	<g>
		<g>
			<path class="st4" d="M63.8,94.2c-2.4,3.7-5.8,7.6-7,11.7c-0.4,1.3-0.2,1.5-0.6,2.5c-0.3,0.7-0.9,1.3-1.2,2.2
				c-1,3,1.1,6.4-1.5,9.2c-0.3,0.3,0.4,0.4,0.6,0.2c1.1-1.3,1.4-2.1,1.6-3.8c0.2-2.3-0.4-3.8,0.7-6.1c-1,2.3,1.6-3.2,1.5-2.8
				c0.4-1.7,0.1-2.7,0.9-4.4c1.4-3,3.8-5.8,5.7-8.6C64.7,94,64,94,63.8,94.2L63.8,94.2z"/>
		</g>
	</g>
	<g>
		<g>
			<path class="st4" d="M55.1,111.8c-0.7,3.6-2.6,5.5-5.2,7.7c-1.5,1.2-2,2.6-2.6,4.4c-1.3,3.9-2.6,5.9-5.1,9.1
				c-1.2,1.5-1.9,2.8-2.2,4.7c-0.1,0.3,0.7,0.2,0.7-0.1c0.6-3.4,2.9-5,4.8-7.5c1.5-2,1.9-3.9,2.5-6.2c1-3.6,4.3-4.4,6.2-7.2
				c1-1.4,1.3-3.3,1.6-5C55.9,111.4,55.2,111.5,55.1,111.8L55.1,111.8z"/>
		</g>
	</g>
	<g>
		<g>
			<path class="st4" d="M57.7,104.2c-1.3,2.3-2.2,3-2.7,1.9c-0.1-0.3-0.2-0.6-0.5-0.8c-0.3,0-0.5-0.3-0.8-0.3
				c-4.4-0.3-8.8,0.1-12.5-2.7c-0.8-0.5-1.4-1-1.9-1.8c-1.3-2.1-1.3-4.1,0.1-6c0.3-1.3,0.4-1.1,0.1-2.1c-0.4-1.3-0.1,0-1.1-1.4
				c-1.5-0.5-2.5-1.6-2.9-3.3c-0.2-0.8-0.4-1.6-0.6-2.4c-0.1-0.3-0.8-0.1-0.7,0.2c0.4,1.8,1,3.2,1.8,4.8c1.3,2.6,2.3-5,2.1,5.3
				c0,1-0.6,1.4-0.5,2.6c0.4,3.8,4.9,5.8,8.1,6.5c2.1,0.5,4.3,0.1,6.4,0.6c1.3,0.3,2.3,2.1,3.6,2.2c2.1,0.1,2.6-1.7,2.9-3.5
				C58.5,103.9,57.7,104,57.7,104.2L57.7,104.2z"/>
		</g>
	</g>
	<g>
		<g>
			<path class="st4" d="M56.9,106.3c2.3-3.3,4.4-6.7,6.2-10.3c0.6-1.2,1.3-2.2,1.1-3.5c0-0.2-0.5-0.5-0.6-0.6
				c-1-2.1-1.5-2.1-1.3-4.2c0-0.1-0.7,0-0.7,0.2c-0.1,1.3,0.2,2.1,0.6,3.3c0.4,1.1,1.2,1.8,1,3.2c-0.1,0.9-1,2-1.4,2.8
				c-1.7,3.2-3.6,6.2-5.6,9.2C56.1,106.5,56.8,106.5,56.9,106.3L56.9,106.3z"/>
		</g>
	</g>
</g>
<g id="Layer_12">
</g>
<g id="Layer_3">
</g>
<g id="Layer_2">
</g>
</svg>
