<?xml version="1.0" encoding="utf-8"?>
<!-- Generator: Adobe Illustrator 24.0.3, SVG Export Plug-In . SVG Version: 6.00 Build 0)  -->
<svg version="1.1" id="Layer_1" xmlns="http://www.w3.org/2000/svg" xmlns:xlink="http://www.w3.org/1999/xlink" x="0px" y="0px"
	 viewBox="0 0 841.89 1190.55" style="enable-background:new 0 0 841.89 1190.55;" xml:space="preserve">
<style type="text/css">
	.st0{display:none;fill:#B6D994;}
	.st1{display:none;fill:#FFFAC4;}
	.st2{display:none;}
	.st3{display:inline;}
	.st4{fill:#FFFAC4;}
</style>
<path class="st0" d="M373.19,55.61c-46.37,15.42-83.9,55.08-96.75,102.22c-46.09-13.77-98.73-0.87-134.54,31.25
	s-54.28,81.99-49.97,129.9c1.99,22.14,8.82,44.34,22.76,61.65s35.64,29.11,57.84,27.88C90.25,448.79,25.49,536.93,38.14,627.67
	c1.39,9.97,3.86,20.22,10.3,27.95c14.8,17.78,42.41,14.85,65.09,10.32c-33.82,19.03-46.41,65.14-33.68,101.79
	c12.74,36.65,46.1,63.44,82.75,76.21c23.68,8.25,52.34,10.57,71.72-5.35c-0.41,43.38,35.88,82.68,78.58,90.33
	c42.7,7.65,87.9-13.85,113.19-49.1c44.36,50.79,118.96,77.91,182.25,54.62c12.36-4.55,24.33-11.05,33-20.97
	c22.26-25.47,16.75-64.07,9.92-97.21c37.45,17.4,88.5,16.47,113.13-16.67c13.37-18,16.21-41.49,18.17-63.82
	c3.06-34.85,5.08-69.86,3.72-104.82c-1.12-28.77-4.68-57.97-16.48-84.22c-11.8-26.26-32.85-49.45-60.21-58.39
	c27.93-65.01,35.14-141.45,6.73-206.25s-96.87-113.67-167.33-107.16c16.04-27.17,22.89-59.65,19.19-90.99
	c-2.63-22.31-13.64-46.97-35.43-52.42c-33.4-8.35-40.66,33.61-67.05,32.76c-13.61-0.44-28.94-12.72-43.84-14.24
	C405.55,48.38,388.73,50.44,373.19,55.61z"/>
<path class="st1" d="M361.48,870.65c12.46-57.6,38.64-115.11,41.05-172.76c6.89-164.69-179.43-331.19-19.63-492.78
	c37.12,133.47,74.27,267.02,150.11,399.84c21.71,38.02,46.63,76.1,46.57,114.37c-0.1,64.13-70.29,127.54-78.44,191.64
	c-9.86,77.5,71.07,154.83,47.29,232.21c-46.64,6.23-108.92,6.82-155.84,1.07c56.62-35.61-27.62-94.53-34.16-132.37
	C350.3,964.8,351.31,917.69,361.48,870.65z"/>
<g id="XMLID_1_" class="st2">
	<g class="st3">
		<path class="st4" d="M457.24,365.13v53.24c-38.81,4.57-78.4-1.02-117.18-7.01c-5.25-0.81-10.54-1.64-15.48-3.57
			c-9.47-3.71-27.89-19.25-28.15-30.91c-0.4-17.79,16.18-12.73,29.74-10.71c39.79,5.92,78.78,7.84,118.69,1.23
			C449,366.71,453.12,365.95,457.24,365.13z"/>
	</g>
	<g class="st3">
	</g>
</g>
<path class="st1" d="M573.56,350.91c-22.43,3.85-44.45,9.81-66.77,14.23v53.24c4.42-0.52,8.83-1.16,13.23-1.96
	c27.62-5.01,53.69-15.6,79.06-27.85v-41.41C590.56,348.3,582.03,349.45,573.56,350.91z"/>
<path class="st1" d="M746.98,287.65c-14.69,19.64-38.05,31.13-61.77,37.38c-15.41,4.06-31.22,6.2-47.03,8.34v41.41
	c11.49-5.55,22.83-11.43,34.11-17.29C703.46,341.29,737.63,321.52,746.98,287.65z"/>
<path class="st1" d="M75.49,487.25c-6.22,7.04,1.85,17.49,9.48,22.98c8.78,6.31,17.83,12.25,27.12,17.78
	c16.64,9.9,34.14,18.51,52.26,25.35v-35.52C132.44,507.46,75.31,487.46,75.49,487.25z"/>
<path class="st4" d="M228.16,532.98c-2.64-0.51-10.07-2.79-19.89-5.98v35.52c21.55,8.14,43.98,13.77,66.89,16.05
	c6.98,0.7,14.09,1.09,21.25,1.15v-38.97C273.51,539.94,250.66,537.34,228.16,532.98z"/>
<path class="st1" d="M413.35,560.47c12.95-6.67,24.45-17.76,5.26-25.29c-10.71-4.2-32.62,3.53-43.64,4.42
	c-16.66,1.35-33.4,1.72-50.1,1.14v38.97C355.25,579.97,386.58,574.26,413.35,560.47z"/>
<path class="st1" d="M504.59,626.06c-21.36,6.36-48.86,37.61-17.16,46.41c18.73,5.2,42.4,2.08,65.51-3.37v-53.89
	C536.68,617.96,520.51,621.32,504.59,626.06z"/>
<path class="st1" d="M592.32,615.39v53.89c20.36-4.8,40.29-11.41,56.04-15.72c2.72-0.74,5.44-1.5,8.16-2.26v-45.22
	C635.17,609.25,613.67,611.79,592.32,615.39z"/>
<path class="st1" d="M801.23,567.76c-34.53,18.45-71.27,25.9-108.5,31.43v45.22c22.62-6.34,45.19-13.6,64.69-26.56
	C776.11,605.43,791.4,587.94,801.23,567.76z"/>
</svg>
